<svg width="49" height="48" viewBox="0 0 49 48" fill="none" xmlns="http://www.w3.org/2000/svg">
<g clip-path="url(#clip0_228_4128)">
<path d="M36.4024 25.9763C35.6111 25.4459 35.0903 24.5434 35.0903 23.5193C35.0903 21.8869 36.4137 20.5635 38.0462 20.5635C39.6786 20.5635 41.002 21.8869 41.002 23.5193C41.002 24.3986 40.6181 25.1883 40.0087 25.7297" stroke="black" stroke-width="1.40625" stroke-miterlimit="10" stroke-linecap="round" stroke-linejoin="round"/>
<path d="M14.5586 47.2965H1.81534C1.49827 47.2965 1.24121 47.0395 1.24121 46.7224V44.5761C1.24121 44.259 1.49827 44.002 1.81534 44.002H14.5303" stroke="black" stroke-width="1.40625" stroke-miterlimit="10" stroke-linecap="round" stroke-linejoin="round"/>
<path d="M18.2195 44.0034H2.76855V42.7911C2.76855 41.1223 4.12137 39.7695 5.79012 39.7695H15.1979C15.7678 39.7695 16.3009 39.9273 16.7558 40.2015" stroke="black" stroke-width="1.40625" stroke-miterlimit="10" stroke-linecap="round" stroke-linejoin="round"/>
<path d="M14.3561 29.2832H6.63296C6.3398 29.2832 6.10205 29.0456 6.10205 28.7523V26.2695H14.8869V28.7523C14.8869 29.0456 14.6492 29.2832 14.3561 29.2832Z" stroke="black" stroke-width="1.40625" stroke-miterlimit="10" stroke-linecap="round" stroke-linejoin="round"/>
<path d="M13.862 20.1188V21.8161C13.862 22.1093 13.6244 22.347 13.3311 22.347H12.1629C11.8698 22.347 11.632 22.1094 11.632 21.8161V20.1188C11.632 19.8256 11.3944 19.5879 11.1011 19.5879H9.88788C9.59473 19.5879 9.35698 19.8255 9.35698 20.1188V21.8161C9.35698 22.1093 9.11932 22.347 8.82607 22.347H7.65804C7.36488 22.347 7.12713 22.1094 7.12713 21.8161V20.1188C7.12713 19.8256 6.88948 19.5879 6.59623 19.5879H5.39126C5.0981 19.5879 4.86035 19.8255 4.86035 20.1188V25.4535C4.86035 25.904 5.2256 26.2693 5.67616 26.2693H15.313C15.7636 26.2693 16.1288 25.904 16.1288 25.4535V20.1188C16.1288 19.8256 15.8912 19.5879 15.5979 19.5879H14.3929C14.0997 19.5879 13.862 19.8255 13.862 20.1188Z" stroke="black" stroke-width="1.40625" stroke-miterlimit="10" stroke-linecap="round" stroke-linejoin="round"/>
<path d="M13.5748 29.2832H7.41344L6.25 39.7691H14.7382L13.5748 29.2832Z" stroke="black" stroke-width="1.40625" stroke-miterlimit="10" stroke-linecap="round" stroke-linejoin="round"/>
<path d="M34.3032 44.002H47.1847C47.5017 44.002 47.7588 44.259 47.7588 44.5761V46.7224C47.7588 47.0395 47.5017 47.2965 47.1847 47.2965H44.059" stroke="black" stroke-width="1.40625" stroke-miterlimit="10" stroke-linecap="round" stroke-linejoin="round"/>
<path d="M40.8182 47.2969H34.1045" stroke="black" stroke-width="1.40625" stroke-miterlimit="10" stroke-linecap="round" stroke-linejoin="round"/>
<path d="M31.7062 40.007C32.0677 39.8541 32.4651 39.7695 32.8823 39.7695H43.2097C44.8785 39.7695 46.2313 41.1223 46.2313 42.7911V44.0034H29.8608" stroke="black" stroke-width="1.40625" stroke-miterlimit="10" stroke-linecap="round" stroke-linejoin="round"/>
<path d="M41.3782 34.4022C41.1496 33.0537 41.0423 31.6913 41.0423 30.3278V28.8047H35.0505V30.3278C35.0505 31.6913 34.943 33.0537 34.7145 34.4022C33.999 38.6248 32.8535 39.7693 32.8535 39.7693H43.2393C43.2392 39.7692 42.0937 38.6247 41.3782 34.4022Z" stroke="black" stroke-width="1.40625" stroke-miterlimit="10" stroke-linecap="round" stroke-linejoin="round"/>
<path d="M22.2271 5.25525C21.8739 4.7805 21.665 4.19212 21.665 3.555C21.665 1.98 22.9418 0.703125 24.5169 0.703125C26.092 0.703125 27.3688 1.97991 27.3688 3.555C27.3688 4.1235 27.2025 4.65309 26.9158 5.09784" stroke="black" stroke-width="1.40625" stroke-miterlimit="10" stroke-linecap="round" stroke-linejoin="round"/>
<path d="M34.3031 47.2965H14.7294C14.4123 47.2965 14.1553 47.0395 14.1553 46.7224V44.5761C14.1553 44.259 14.4123 44.002 14.7294 44.002H34.3032C34.6202 44.002 34.8773 44.259 34.8773 44.5761V46.7224C34.8772 47.0395 34.6202 47.2965 34.3031 47.2965Z" stroke="black" stroke-width="1.40625" stroke-miterlimit="10" stroke-linecap="round" stroke-linejoin="round"/>
<path d="M30.3246 39.7653H18.709V37.0016C18.709 36.7085 18.9466 36.4707 19.2399 36.4707H29.7939C30.087 36.4707 30.3248 36.7084 30.3248 37.0016V39.7653H30.3246Z" stroke="black" stroke-width="1.40625" stroke-miterlimit="10" stroke-linecap="round" stroke-linejoin="round"/>
<path d="M29.7559 15.6481H19.2765C18.9834 15.6481 18.7456 15.4104 18.7456 15.1172V12.8844C18.7456 12.5913 18.9833 12.3535 19.2765 12.3535H29.7559C30.049 12.3535 30.2868 12.5912 30.2868 12.8844V15.1172C30.2867 15.4104 30.049 15.6481 29.7559 15.6481Z" stroke="black" stroke-width="1.40625" stroke-miterlimit="10" stroke-linecap="round" stroke-linejoin="round"/>
<path d="M29.1527 12.3532H19.8809V9.5895C19.8809 9.29634 20.1185 9.05859 20.4118 9.05859H28.6219C28.9151 9.05859 29.1528 9.29625 29.1528 9.5895V12.3532H29.1527Z" stroke="black" stroke-width="1.40625" stroke-miterlimit="10" stroke-linecap="round" stroke-linejoin="round"/>
<path d="M33.3499 43.9985H15.6831V42.7862C15.6831 41.1175 17.0359 39.7646 18.7047 39.7646H30.3284C31.9972 39.7646 33.35 41.1175 33.35 42.7862V43.9985H33.3499Z" stroke="black" stroke-width="1.40625" stroke-miterlimit="10" stroke-linecap="round" stroke-linejoin="round"/>
<path d="M21.0841 22.3588V28.2966C21.0841 30.8368 20.731 33.3647 20.0349 35.8077L19.8462 36.4701H29.1866L28.9979 35.8077C28.3019 33.3647 27.9487 30.8368 27.9487 28.2966V15.6475H21.084V19.0746" stroke="black" stroke-width="1.40625" stroke-miterlimit="10" stroke-linecap="round" stroke-linejoin="round"/>
<path d="M20.4452 5.88473C20.7732 7.5878 21.7016 9.05958 21.7016 9.05958H27.3314C27.3314 9.05958 28.2599 7.5878 28.5878 5.88473C28.6506 5.55867 28.4006 5.25586 28.0685 5.25586H20.9644C20.6325 5.25586 20.3825 5.55867 20.4452 5.88473Z" stroke="black" stroke-width="1.40625" stroke-miterlimit="10" stroke-linecap="round" stroke-linejoin="round"/>
<path d="M41.8513 28.8043H34.2403C33.9161 28.8043 33.6533 28.5415 33.6533 28.2173V26.5645C33.6533 26.2403 33.9161 25.9775 34.2403 25.9775H41.8513C42.1755 25.9775 42.4383 26.2403 42.4383 26.5645V28.2173C42.4383 28.5415 42.1755 28.8043 41.8513 28.8043Z" stroke="black" stroke-width="1.40625" stroke-miterlimit="10" stroke-linecap="round" stroke-linejoin="round"/>
</g>
<defs>
<clipPath id="clip0_228_4128">
<rect width="48" height="48" fill="white" transform="translate(0.5)"/>
</clipPath>
</defs>
</svg>
