<svg width="48" height="48" viewBox="0 0 48 48" fill="none" xmlns="http://www.w3.org/2000/svg">
<g clip-path="url(#clip0_228_4217)">
<path d="M22.8729 11.9248C23.8146 13.2772 24.3668 14.9212 24.3668 16.6942C24.3668 19.4825 23.0011 21.9517 20.9023 23.4697" stroke="black" stroke-width="1.40625" stroke-miterlimit="10" stroke-linecap="round" stroke-linejoin="round"/>
<path d="M11.1334 23.4797C9.02654 21.9627 7.65479 19.4885 7.65479 16.694C7.65479 12.0791 11.396 8.33789 16.0109 8.33789C17.6627 8.33789 19.2025 8.81714 20.4989 9.6442" stroke="black" stroke-width="1.40625" stroke-miterlimit="10" stroke-linecap="round" stroke-linejoin="round"/>
<path d="M22.6075 27.9053C21.3513 29.513 20.3249 31.2747 19.5483 33.1395" stroke="black" stroke-width="1.40625" stroke-miterlimit="10" stroke-linecap="round" stroke-linejoin="round"/>
<path d="M14.2894 41.5804L14.116 39.7303C13.7122 35.4192 12.0802 31.3154 9.41504 27.9053" stroke="black" stroke-width="1.40625" stroke-miterlimit="10" stroke-linecap="round" stroke-linejoin="round"/>
<path d="M12.6867 27.7942H7.4082V23.6445H24.6133V27.7942H15.968" stroke="black" stroke-width="1.40625" stroke-miterlimit="10" stroke-linecap="round" stroke-linejoin="round"/>
<path d="M41.9175 7.2832V16.1702" stroke="black" stroke-width="1.40625" stroke-miterlimit="10" stroke-linecap="round" stroke-linejoin="round"/>
<path d="M45.3403 7.2832V16.1702" stroke="black" stroke-width="1.40625" stroke-miterlimit="10" stroke-linecap="round" stroke-linejoin="round"/>
<path d="M40.8815 22.3105V23.9968C40.8815 24.4413 40.7542 24.8765 40.5147 25.2508C40.2324 25.6919 39.8097 26.0249 39.3147 26.1959L20.956 32.5387C18.7103 33.3145 17.0744 35.2641 16.7002 37.6104C16.4333 39.2839 16.7401 40.9985 17.5709 42.4755L17.6743 42.6595" stroke="black" stroke-width="1.40625" stroke-miterlimit="10" stroke-linecap="round" stroke-linejoin="round"/>
<path d="M34.9917 41.4576L43.7116 35.1877C44.8508 34.3685 45.6568 33.1665 45.9819 31.8015L46.1335 31.1652C46.4607 29.7917 46.626 28.3848 46.626 26.973V16.2061H40.8814V19.0291" stroke="black" stroke-width="1.40625" stroke-miterlimit="10" stroke-linecap="round" stroke-linejoin="round"/>
<path d="M19.9282 45.6169C21.1194 46.5839 22.6028 47.1689 24.1814 47.2498C25.8462 47.3351 27.4906 46.8514 28.844 45.8782L32.3282 43.373" stroke="black" stroke-width="1.40625" stroke-miterlimit="10" stroke-linecap="round" stroke-linejoin="round"/>
<path d="M40.8755 0.703125V6.96234H46.0652V0.703125" stroke="black" stroke-width="1.40625" stroke-miterlimit="10" stroke-linecap="round" stroke-linejoin="round"/>
<path d="M20.7617 32.6475L28.7486 45.834" stroke="black" stroke-width="1.40625" stroke-miterlimit="10" stroke-linecap="round" stroke-linejoin="round"/>
<path d="M38.6187 26.7822L43.6487 35.087" stroke="black" stroke-width="1.40625" stroke-miterlimit="10" stroke-linecap="round" stroke-linejoin="round"/>
<path d="M30.2007 40.6229L38.6644 34.5371" stroke="black" stroke-width="1.40625" stroke-miterlimit="10" stroke-linecap="round" stroke-linejoin="round"/>
<path d="M30.4639 36.4993L35.4433 32.9189" stroke="black" stroke-width="1.40625" stroke-miterlimit="10" stroke-linecap="round" stroke-linejoin="round"/>
<path d="M8.31199 47.2969L7.23959 45.7349C6.32112 44.3972 5.10077 43.2969 3.67868 42.5245L1.37402 41.2733L2.36346 41.1918C5.65455 40.9193 8.87271 42.262 11.0085 44.7965L11.6311 45.5357L11.5502 44.2303C11.3803 41.5137 10.6058 38.8694 9.28352 36.4948L8.01612 34.2197L9.30134 35.2697C11.8039 37.3145 13.7168 39.9969 14.8402 43.0374L16.0095 46.2006L16.809 44.37C18.1942 41.1988 21.1635 39.1048 24.4826 38.7859C24.4826 38.7859 19.6435 42.9125 19.6435 47.2968" stroke="black" stroke-width="1.40625" stroke-miterlimit="10" stroke-linecap="round" stroke-linejoin="round"/>
</g>
<defs>
<clipPath id="clip0_228_4217">
<rect width="48" height="48" fill="white"/>
</clipPath>
</defs>
</svg>
