<svg width="57" height="50" viewBox="0 0 57 50" fill="none" xmlns="http://www.w3.org/2000/svg">
<path d="M55.8392 37.3665C56.2949 37.3665 56.6643 36.9971 56.6643 36.5413V34.9456C56.6643 33.3325 55.4326 32.0201 53.9187 32.0201H52.5833V30.3294C52.5833 29.1464 51.6208 28.184 50.4379 28.184H43.7964C42.6134 28.184 41.651 29.1465 41.651 30.3294V34.7323C35.718 34.0402 28.3329 34.0391 22.3899 34.7323V30.3294C22.3899 29.1464 21.4274 28.184 20.2445 28.184H19.7198C24.243 25.4296 29.3016 21.6945 33.2457 18.0569L35.8356 21.6174C36.5325 22.5756 37.8778 22.785 38.8326 22.0904L44.2037 18.1838C45.1602 17.4881 45.3724 16.1435 44.6766 15.1867L43.6821 13.8195L44.762 13.0341C45.9863 12.1434 46.2104 10.3576 45.2615 9.05309L40.7829 2.89571C39.8339 1.59138 38.0661 1.25441 36.8417 2.14497L35.7617 2.93059L34.7673 1.56344C34.0716 0.606536 32.7271 0.394539 31.7703 1.09027L26.3993 4.99687C25.4427 5.6926 25.2305 7.03709 25.9263 7.99388L28.5162 11.5544C23.3097 14.4855 17.338 18.8279 12.9398 22.8842L11.0347 20.2653C9.96185 18.7903 7.8861 18.4625 6.41136 19.5356L2.92325 22.0726C1.44752 23.1462 1.12023 25.2202 2.19364 26.6961L2.50322 27.1217L1.42343 27.9071C0.174661 28.8153 -0.00565284 30.6102 0.923857 31.8881L5.40253 38.0452C5.89254 38.7191 6.61071 39.1476 7.37663 39.2614V42.5595C7.37663 44.1726 8.60835 45.4851 10.1223 45.4851H11.4576V47.1756C11.4576 48.3586 12.4201 49.321 13.603 49.321H20.2445C21.4275 49.321 22.3899 48.3585 22.3899 47.1756V42.7732C24.7349 43.046 27.3709 43.2176 30.0785 43.272C30.0842 43.2722 30.0898 43.2722 30.0954 43.2722C30.5434 43.2722 30.9111 42.9136 30.9202 42.4636C30.9293 42.0081 30.5674 41.6313 30.1117 41.6221C27.3817 41.5671 24.7296 41.3914 22.3899 41.1117V36.3933C28.227 35.6937 35.6928 35.6792 41.651 36.3933V41.1117C39.3115 41.3914 36.6593 41.5671 33.9292 41.6221C33.4736 41.6313 33.1116 42.0081 33.1207 42.4635C33.1298 42.9136 33.4973 43.2722 33.9455 43.2722C33.9511 43.2722 33.9568 43.2722 33.9624 43.272C36.6701 43.2176 39.3062 43.046 41.651 42.7732V47.1756C41.651 48.3586 42.6135 49.321 43.7964 49.321H50.4379C51.6209 49.321 52.5833 48.3585 52.5833 47.1756V45.4851H53.9187C55.4326 45.4851 56.6643 44.1726 56.6643 42.5595V40.3922C56.6643 39.9364 56.2949 39.5671 55.8392 39.5671C55.3835 39.5671 55.0141 39.9364 55.0141 40.3922V42.5595C55.0141 43.2507 54.5125 43.8347 53.9188 43.8347H52.5834V33.6705H53.9188C54.5124 33.6705 55.0141 34.2545 55.0141 34.9457V36.5415C55.014 36.9971 55.3835 37.3665 55.8392 37.3665ZM37.8124 3.47956C38.2924 3.13059 39.0418 3.3076 39.4482 3.86659L43.9269 10.024C44.3335 10.5828 44.2713 11.3503 43.7912 11.6995L42.7113 12.4849C42.0428 11.5654 37.412 5.19919 36.7325 4.26495L37.8124 3.47956ZM27.2609 7.02333C27.1032 6.80627 27.1531 6.48954 27.3701 6.33167L32.7411 2.42496C32.959 2.26665 33.2753 2.31781 33.4326 2.5342C33.7666 2.9934 41.4634 13.575 41.862 14.1231C41.8618 14.1229 41.8622 14.1233 41.862 14.1231L43.3419 16.1575C43.4998 16.3745 43.4498 16.6913 43.2328 16.8491L37.8617 20.7559C37.6436 20.9143 37.3301 20.8665 37.1702 20.6466C36.8447 20.1992 27.6538 7.56339 27.2609 7.02333ZM29.4932 12.8979L32.2688 16.7136C27.9759 20.6979 21.9544 25.1024 16.6921 28.0428L13.917 24.2276C18.1983 20.2537 24.2234 15.8423 29.4932 12.8979ZM7.37663 34.9456V37.5648C7.13119 37.4734 6.90434 37.3042 6.73734 37.0745L2.25866 30.9172C1.83345 30.3328 1.92851 29.5805 2.39431 29.2417L3.4741 28.4563C3.60501 28.6364 4.63001 30.0455 7.5191 34.0175C7.42074 34.3301 7.37663 34.6526 7.37663 34.9456ZM11.4576 43.8346H10.1223C9.52861 43.8346 9.02695 43.2507 9.02695 42.5593C9.02695 41.8139 9.02695 35.7226 9.02695 34.9455C9.02695 34.6572 9.12211 34.346 9.31057 34.1016C9.535 33.8099 9.83852 33.6703 10.1223 33.6703H11.4575L11.4576 43.8346ZM11.4576 30.3293V32.02H10.1223C10.0553 32.02 9.98892 32.0234 9.92302 32.0286C9.91136 32.0294 9.89969 32.0303 9.88803 32.0314C9.37713 32.0776 8.90583 32.2733 8.51274 32.5775L3.52833 25.7251C2.99014 24.9853 3.15417 23.9454 3.89402 23.4072L7.38213 20.8702C8.11867 20.3341 9.16392 20.4987 9.70002 21.236C10.3008 22.0618 14.1108 27.2999 14.7537 28.1838H13.6029C12.4201 28.1838 11.4576 29.1463 11.4576 30.3293ZM20.7397 47.1755C20.7397 47.4439 20.513 47.6706 20.2447 47.6706H13.6031C13.3348 47.6706 13.108 47.4439 13.108 47.1755C13.108 46.3989 13.108 30.8357 13.108 30.3294C13.108 30.0611 13.3348 29.8343 13.6031 29.8343C15.2822 29.8343 16.2093 29.8343 16.692 29.8343C17.0398 29.8343 17.1569 29.8343 17.1579 29.8343C17.6403 29.8343 18.5668 29.8343 20.2447 29.8343C20.513 29.8343 20.7397 30.0611 20.7397 30.3294C20.7397 31.3504 20.7397 46.5477 20.7397 47.1755ZM50.9331 47.1755C50.9331 47.4439 50.7064 47.6706 50.438 47.6706H43.7965C43.5282 47.6706 43.3014 47.4439 43.3014 47.1755V30.3294C43.3014 30.0611 43.5282 29.8343 43.7965 29.8343H50.438C50.7064 29.8343 50.9331 30.0611 50.9331 30.3294C50.9331 31.3457 50.9331 46.6303 50.9331 47.1755Z" fill="black"/>
</svg>
