<svg width="50" height="50" viewBox="0 0 50 50" fill="none" xmlns="http://www.w3.org/2000/svg">
<path d="M5.37447 33.7797L3.16397 35.9901C0.278677 38.8754 0.278677 43.5535 3.16397 46.4389L3.5612 46.836C6.44659 49.7213 11.1246 49.7213 14.0099 46.836L16.2274 44.6185" stroke="black" stroke-width="1.4" stroke-miterlimit="10" stroke-linecap="round" stroke-linejoin="round"/>
<path d="M13.8468 42.234L16.272 44.6593C16.3852 44.7724 16.5687 44.7724 16.6818 44.6593L19.1076 42.2335C19.2208 42.1203 19.2208 41.9369 19.1076 41.8237L8.17523 30.8914C8.06214 30.7782 7.87864 30.7782 7.76555 30.8914L5.33978 33.3171C5.22659 33.4303 5.22659 33.6138 5.33978 33.7269L11.4796 39.8668" stroke="black" stroke-width="1.4" stroke-miterlimit="10" stroke-linecap="round" stroke-linejoin="round"/>
<path d="M13.6963 36.375L19.8088 30.2625" stroke="black" stroke-width="1.4" stroke-miterlimit="10" stroke-linecap="round" stroke-linejoin="round"/>
<path d="M8.23779 30.916L12.8777 23.3696" stroke="black" stroke-width="1.4" stroke-miterlimit="10" stroke-linecap="round" stroke-linejoin="round"/>
<path d="M10.9316 33.6094L16.3327 26.7854" stroke="black" stroke-width="1.4" stroke-miterlimit="10" stroke-linecap="round" stroke-linejoin="round"/>
<path d="M19.0835 41.7617L26.6299 37.1024" stroke="black" stroke-width="1.4" stroke-miterlimit="10" stroke-linecap="round" stroke-linejoin="round"/>
<path d="M16.3901 39.0684L23.214 33.6672" stroke="black" stroke-width="1.4" stroke-miterlimit="10" stroke-linecap="round" stroke-linejoin="round"/>
<path d="M22.9266 39.333L10.6484 27.0741" stroke="black" stroke-width="1.4" stroke-miterlimit="10" stroke-linecap="round" stroke-linejoin="round"/>
<path d="M26.592 37.083L12.917 23.3886" stroke="black" stroke-width="1.4" stroke-miterlimit="10" stroke-linecap="round" stroke-linejoin="round"/>
<path d="M41.1211 33.3428L46.6597 31.0097C48.2817 30.3264 49.2277 28.624 48.9513 26.8857C48.6069 24.72 47.4117 22.7818 45.6312 21.5017L45.5243 21.4248C45.1926 21.1863 44.6312 20.9426 44.2581 20.8231" stroke="black" stroke-width="1.4" stroke-miterlimit="10" stroke-linecap="round" stroke-linejoin="round"/>
<path d="M29.6467 32.2044C28.6336 33.5929 27.3939 35.5433 26.6484 37.1016C30.3775 37.0738 34.0649 36.3146 37.5017 34.8669L37.9964 34.6586" stroke="black" stroke-width="1.4" stroke-miterlimit="10" stroke-linecap="round" stroke-linejoin="round"/>
<path d="M25.8852 28.1897C24.7989 29.921 23.9023 31.7315 23.2144 33.667C26.9204 33.2497 30.5085 32.1091 33.7753 30.31L42.4802 25.516C44.022 24.6668 44.7849 22.8747 44.3283 21.1747C43.7594 19.0568 42.368 17.254 40.4634 16.167L40.349 16.1017C40.0562 15.9345 39.7874 15.8098 39.4733 15.7265" stroke="black" stroke-width="1.4" stroke-miterlimit="10" stroke-linecap="round" stroke-linejoin="round"/>
<path d="M34.3416 10.6873C34.4991 10.7285 34.6167 10.7802 34.7709 10.8426C36.8022 11.6647 38.4208 13.2644 39.267 15.2857L39.3178 15.4072C40.0065 17.0523 39.4654 18.9551 38.0141 19.9917L30.0068 25.7114C26.9472 27.8967 23.4794 29.4446 19.8096 30.2627C20.3352 28.0608 21.1201 25.973 22.1446 23.9659" stroke="black" stroke-width="1.4" stroke-miterlimit="10" stroke-linecap="round" stroke-linejoin="round"/>
<path d="M27.5752 19.4903L25.9062 21.0217C23.1337 23.5656 19.8779 25.526 16.3325 26.7861C16.5816 24.5751 17.088 22.4448 17.8381 20.3609" stroke="black" stroke-width="1.4" stroke-miterlimit="10" stroke-linecap="round" stroke-linejoin="round"/>
<path d="M29.2192 5.80457C31.1336 6.44306 32.8263 7.77412 33.8322 9.5366L33.8975 9.65105C34.7822 11.2012 34.4768 13.1571 33.1617 14.3637L30.0608 17.209" stroke="black" stroke-width="1.4" stroke-miterlimit="10" stroke-linecap="round" stroke-linejoin="round"/>
<path d="M23.1132 1.04784C25.2788 1.39224 27.217 2.58751 28.4971 4.36796L28.5739 4.47487C29.6158 5.92395 29.5165 7.90094 28.3348 9.23837L21.8151 16.6175C19.3238 19.4371 16.291 21.7269 12.897 23.3506C12.9247 19.6215 13.6839 15.934 15.1316 12.4973L18.9892 3.33958C19.6725 1.71743 21.3749 0.771332 23.1132 1.04784Z" stroke="black" stroke-width="1.4" stroke-miterlimit="10" stroke-linecap="round" stroke-linejoin="round"/>
</svg>
