<svg width="44" height="48" viewBox="0 0 44 48" fill="none" xmlns="http://www.w3.org/2000/svg">
<path d="M42.8763 46.3821H41.528V4.04494C41.528 3.59803 41.1658 3.23597 40.7191 3.23597H25.618C25.1711 3.23597 24.809 3.59803 24.809 4.04494V7.55053H23.1911V4.04494C23.1911 3.59803 22.8288 3.23597 22.3821 3.23597H18.8764V0.808969C18.8764 0.362062 18.5142 0 18.0674 0C17.6207 0 17.2585 0.362062 17.2585 0.808969V3.23597H13.7529C13.3061 3.23597 12.9439 3.59803 12.9439 4.04494V7.55053H10.5169C10.0701 7.55053 9.70797 7.91259 9.70797 8.3595V15.1011H2.96643C2.51962 15.1011 2.15746 15.4631 2.15746 15.91V46.382H0.808966C0.362155 46.382 0 46.744 0 47.1909C0 47.6378 0.362249 48 0.808966 48H42.8763C43.3231 48 43.6853 47.6379 43.6853 47.191C43.6853 46.7441 43.3231 46.3821 42.8763 46.3821ZM14.5618 4.85391H21.5729V7.55053H14.5618V4.85391ZM11.8651 46.3821H11.3258V45.0337C11.3258 44.5868 10.9636 44.2248 10.5168 44.2248C10.0701 44.2248 9.70788 44.5868 9.70788 45.0337V46.3821H9.16853V43.6854H11.8651V46.3821ZM17.2584 25.6179V27.0097V46.3821H13.4831V42.8765C13.4831 42.4296 13.1208 42.0675 12.6741 42.0675H8.35957C7.91276 42.0675 7.5506 42.4296 7.5506 42.8765V46.3821H3.7753V16.7191H17.2584V25.6179ZM18.0673 15.1012H11.3258V9.16856H24.8089V24.809H18.8764V22.1123H21.3034C21.7502 22.1123 22.1124 21.7503 22.1124 21.3034C22.1124 20.8565 21.7501 20.4944 21.3034 20.4944H18.8764V17.7978H21.3034C21.7502 17.7978 22.1124 17.4357 22.1124 16.9888C22.1124 16.5419 21.7501 16.1798 21.3034 16.1798H18.8764V15.9102C18.8764 15.4632 18.5142 15.1012 18.0673 15.1012ZM32.3595 46.3821H18.8764V27.0097V26.427H32.3595V46.3821ZM39.91 46.3821H33.9774V25.6179V24.5393C33.9774 24.0923 33.6152 23.7303 33.1685 23.7303C32.7217 23.7303 32.3595 24.0923 32.3595 24.5393V24.8089H30.7416V24.5393C30.7416 24.0923 30.3793 23.7303 29.9326 23.7303C29.4859 23.7303 29.1236 24.0923 29.1236 24.5393V24.8089H26.427V8.35959V4.85391H39.9101V46.3821H39.91Z" fill="black"/>
<path d="M22.3817 44.7639C22.8285 44.7639 23.1907 44.4017 23.1907 43.955V28.8539C23.1907 28.407 22.8284 28.0449 22.3817 28.0449C21.935 28.0449 21.5728 28.407 21.5728 28.8539V43.955C21.5728 44.4018 21.9349 44.7639 22.3817 44.7639Z" fill="black"/>
<path d="M25.618 44.7639C26.0649 44.7639 26.427 44.4017 26.427 43.955V28.8539C26.427 28.407 26.0648 28.0449 25.618 28.0449C25.1713 28.0449 24.8091 28.407 24.8091 28.8539V43.955C24.809 44.4018 25.1712 44.7639 25.618 44.7639Z" fill="black"/>
<path d="M28.8539 44.7639C29.3007 44.7639 29.6629 44.4017 29.6629 43.955V28.8539C29.6629 28.407 29.3006 28.0449 28.8539 28.0449C28.4072 28.0449 28.0449 28.407 28.0449 28.8539V43.955C28.0449 44.4018 28.4072 44.7639 28.8539 44.7639Z" fill="black"/>
<path d="M29.9325 10.2473C30.3793 10.2473 30.7415 9.88525 30.7415 9.43834V8.35975C30.7415 7.91284 30.3792 7.55078 29.9325 7.55078C29.4858 7.55078 29.1235 7.91284 29.1235 8.35975V9.43844C29.1235 9.88525 29.4857 10.2473 29.9325 10.2473Z" fill="black"/>
<path d="M33.1683 10.2473C33.6152 10.2473 33.9773 9.88525 33.9773 9.43834V8.35975C33.9773 7.91284 33.6151 7.55078 33.1683 7.55078C32.7216 7.55078 32.3594 7.91284 32.3594 8.35975V9.43844C32.3594 9.88525 32.7215 10.2473 33.1683 10.2473Z" fill="black"/>
<path d="M36.4042 10.2473C36.851 10.2473 37.2131 9.88525 37.2131 9.43834V8.35975C37.2131 7.91284 36.8509 7.55078 36.4042 7.55078C35.9575 7.55078 35.5952 7.91284 35.5952 8.35975V9.43844C35.5952 9.88525 35.9574 10.2473 36.4042 10.2473Z" fill="black"/>
<path d="M29.9325 15.641C30.3793 15.641 30.7415 15.2789 30.7415 14.832V13.7533C30.7415 13.3064 30.3792 12.9443 29.9325 12.9443C29.4858 12.9443 29.1235 13.3064 29.1235 13.7533V14.832C29.1235 15.2789 29.4857 15.641 29.9325 15.641Z" fill="black"/>
<path d="M33.1683 15.641C33.6152 15.641 33.9773 15.2789 33.9773 14.832V13.7533C33.9773 13.3064 33.6151 12.9443 33.1683 12.9443C32.7216 12.9443 32.3594 13.3064 32.3594 13.7533V14.832C32.3594 15.2789 32.7215 15.641 33.1683 15.641Z" fill="black"/>
<path d="M36.4042 15.641C36.851 15.641 37.2131 15.2789 37.2131 14.832V13.7533C37.2131 13.3064 36.8509 12.9443 36.4042 12.9443C35.9575 12.9443 35.5952 13.3064 35.5952 13.7533V14.832C35.5952 15.2789 35.9574 15.641 36.4042 15.641Z" fill="black"/>
<path d="M29.9325 21.0335C30.3793 21.0335 30.7415 20.6715 30.7415 20.2246V19.1459C30.7415 18.699 30.3792 18.3369 29.9325 18.3369C29.4858 18.3369 29.1235 18.699 29.1235 19.1459V20.2246C29.1235 20.6714 29.4857 21.0335 29.9325 21.0335Z" fill="black"/>
<path d="M33.1683 21.0335C33.6152 21.0335 33.9773 20.6715 33.9773 20.2246V19.1459C33.9773 18.699 33.6151 18.3369 33.1683 18.3369C32.7216 18.3369 32.3594 18.699 32.3594 19.1459V20.2246C32.3594 20.6714 32.7215 21.0335 33.1683 21.0335Z" fill="black"/>
<path d="M36.4042 21.0335C36.851 21.0335 37.2131 20.6715 37.2131 20.2246V19.1459C37.2131 18.699 36.8509 18.3369 36.4042 18.3369C35.9575 18.3369 35.5952 18.699 35.5952 19.1459V20.2246C35.5952 20.6714 35.9574 21.0335 36.4042 21.0335Z" fill="black"/>
<path d="M7.28065 23.1908C7.72746 23.1908 8.08961 22.8287 8.08961 22.3818V21.3031C8.08961 20.8562 7.72736 20.4941 7.28065 20.4941C6.83393 20.4941 6.47168 20.8562 6.47168 21.3031V22.3818C6.47168 22.8286 6.83393 23.1908 7.28065 23.1908Z" fill="black"/>
<path d="M10.517 23.1908C10.9638 23.1908 11.3259 22.8287 11.3259 22.3818V21.3031C11.3259 20.8562 10.9637 20.4941 10.517 20.4941C10.0703 20.4941 9.70801 20.8562 9.70801 21.3031V22.3818C9.70801 22.8286 10.0702 23.1908 10.517 23.1908Z" fill="black"/>
<path d="M13.7528 23.1908C14.1996 23.1908 14.5618 22.8287 14.5618 22.3818V21.3031C14.5618 20.8562 14.1995 20.4941 13.7528 20.4941C13.3061 20.4941 12.9438 20.8562 12.9438 21.3031V22.3818C12.9438 22.8286 13.306 23.1908 13.7528 23.1908Z" fill="black"/>
<path d="M7.28065 28.5843C7.72746 28.5843 8.08961 28.2223 8.08961 27.7753V26.6967C8.08961 26.2498 7.72736 25.8877 7.28065 25.8877C6.83393 25.8877 6.47168 26.2498 6.47168 26.6967V27.7753C6.47168 28.2222 6.83393 28.5843 7.28065 28.5843Z" fill="black"/>
<path d="M10.517 28.5843C10.9638 28.5843 11.3259 28.2223 11.3259 27.7753V26.6967C11.3259 26.2498 10.9637 25.8877 10.517 25.8877C10.0703 25.8877 9.70801 26.2498 9.70801 26.6967V27.7753C9.70801 28.2222 10.0702 28.5843 10.517 28.5843Z" fill="black"/>
<path d="M13.7528 28.5843C14.1996 28.5843 14.5618 28.2223 14.5618 27.7753V26.6967C14.5618 26.2498 14.1995 25.8877 13.7528 25.8877C13.3061 25.8877 12.9438 26.2498 12.9438 26.6967V27.7753C12.9438 28.2222 13.306 28.5843 13.7528 28.5843Z" fill="black"/>
<path d="M7.28065 33.9779C7.72746 33.9779 8.08961 33.6158 8.08961 33.1689V32.0902C8.08961 31.6433 7.72736 31.2812 7.28065 31.2812C6.83393 31.2812 6.47168 31.6433 6.47168 32.0902V33.1689C6.47168 33.6158 6.83393 33.9779 7.28065 33.9779Z" fill="black"/>
<path d="M10.517 33.9779C10.9638 33.9779 11.3259 33.6158 11.3259 33.1689V32.0902C11.3259 31.6433 10.9637 31.2812 10.517 31.2812C10.0703 31.2812 9.70801 31.6433 9.70801 32.0902V33.1689C9.70801 33.6158 10.0702 33.9779 10.517 33.9779Z" fill="black"/>
<path d="M13.7528 33.9779C14.1996 33.9779 14.5618 33.6158 14.5618 33.1689V32.0902C14.5618 31.6433 14.1995 31.2812 13.7528 31.2812C13.3061 31.2812 12.9438 31.6433 12.9438 32.0902V33.1689C12.9438 33.6158 13.306 33.9779 13.7528 33.9779Z" fill="black"/>
<path d="M7.28065 39.3705C7.72746 39.3705 8.08961 39.0084 8.08961 38.5615V37.4828C8.08961 37.0359 7.72736 36.6738 7.28065 36.6738C6.83393 36.6738 6.47168 37.0359 6.47168 37.4828V38.5615C6.47168 39.0084 6.83393 39.3705 7.28065 39.3705Z" fill="black"/>
<path d="M10.517 39.3705C10.9638 39.3705 11.3259 39.0084 11.3259 38.5615V37.4828C11.3259 37.0359 10.9637 36.6738 10.517 36.6738C10.0703 36.6738 9.70801 37.0359 9.70801 37.4828V38.5615C9.70801 39.0084 10.0702 39.3705 10.517 39.3705Z" fill="black"/>
<path d="M13.7528 39.3705C14.1996 39.3705 14.5618 39.0084 14.5618 38.5615V37.4828C14.5618 37.0359 14.1995 36.6738 13.7528 36.6738C13.3061 36.6738 12.9438 37.0359 12.9438 37.4828V38.5615C12.9438 39.0084 13.306 39.3705 13.7528 39.3705Z" fill="black"/>
<path d="M36.4042 26.4271C36.851 26.4271 37.2131 26.065 37.2131 25.6181V24.5394C37.2131 24.0925 36.8509 23.7305 36.4042 23.7305C35.9575 23.7305 35.5952 24.0925 35.5952 24.5394V25.6181C35.5952 26.0649 35.9574 26.4271 36.4042 26.4271Z" fill="black"/>
<path d="M36.4042 31.8206C36.851 31.8206 37.2131 31.4586 37.2131 31.0117V29.933C37.2131 29.4861 36.8509 29.124 36.4042 29.124C35.9575 29.124 35.5952 29.4861 35.5952 29.933V31.0117C35.5952 31.4585 35.9574 31.8206 36.4042 31.8206Z" fill="black"/>
<path d="M36.4042 37.2132C36.851 37.2132 37.2131 36.8512 37.2131 36.4043V35.3256C37.2131 34.8787 36.8509 34.5166 36.4042 34.5166C35.9575 34.5166 35.5952 34.8787 35.5952 35.3256V36.4043C35.5952 36.8511 35.9574 37.2132 36.4042 37.2132Z" fill="black"/>
<path d="M36.4042 42.6068C36.851 42.6068 37.2131 42.2447 37.2131 41.7978V40.7191C37.2131 40.2722 36.8509 39.9102 36.4042 39.9102C35.9575 39.9102 35.5952 40.2722 35.5952 40.7191V41.7978C35.5952 42.2446 35.9574 42.6068 36.4042 42.6068Z" fill="black"/>
<path d="M22.1118 12.6742C22.1118 12.2273 21.7496 11.8652 21.3029 11.8652H14.8309C14.3841 11.8652 14.022 12.2273 14.022 12.6742C14.022 13.1211 14.3842 13.4832 14.8309 13.4832H21.3029C21.7497 13.4832 22.1118 13.1211 22.1118 12.6742Z" fill="black"/>
</svg>
