<svg width="51" height="50" viewBox="0 0 51 50" fill="none" xmlns="http://www.w3.org/2000/svg">
<path d="M30.7788 3.90962C35.1722 -0.0878216 41.9773 0.0348356 46.2219 4.27855C48.4066 6.46415 49.4999 9.32871 49.4999 12.1933C49.4999 14.8917 48.5302 17.5901 46.5899 19.7207" stroke="black" stroke-width="1.49999" stroke-miterlimit="10" stroke-linecap="round" stroke-linejoin="round"/>
<path d="M24.654 10.016L10.5166 24.1533" stroke="black" stroke-width="1.49999" stroke-miterlimit="10" stroke-linecap="round" stroke-linejoin="round"/>
<path d="M5.39648 46.2971C9.66059 49.9685 16.0349 49.8996 20.2204 46.0913" stroke="black" stroke-width="1.49999" stroke-miterlimit="10" stroke-linecap="round" stroke-linejoin="round"/>
<path d="M4.40874 30.2788C0.998021 34.0274 0.586687 39.5316 3.17532 43.7031" stroke="black" stroke-width="1.49999" stroke-miterlimit="10" stroke-linecap="round" stroke-linejoin="round"/>
<path d="M40.4831 25.847L26.3457 39.9844" stroke="black" stroke-width="1.49999" stroke-miterlimit="10" stroke-linecap="round" stroke-linejoin="round"/>
<path d="M35.0185 11.9355L30.603 7.52011" stroke="black" stroke-width="1.49999" stroke-miterlimit="10" stroke-linecap="round" stroke-linejoin="round"/>
<path d="M42.979 19.8975L37.4243 14.3428" stroke="black" stroke-width="1.49999" stroke-miterlimit="10" stroke-linecap="round" stroke-linejoin="round"/>
<path d="M28.229 9.89467L30.5247 12.1913C31.2423 12.9089 31.4528 13.9906 31.0559 14.9245L31.0153 15.0183C30.4726 16.296 30.7594 17.7766 31.7416 18.7579C32.3926 19.4098 33.2637 19.7556 34.1503 19.7556C34.5985 19.7556 35.0514 19.6667 35.4812 19.4841L35.5749 19.4435C36.5088 19.0467 37.5905 19.2571 38.3081 19.9747L40.6048 22.2705" stroke="black" stroke-width="1.49999" stroke-miterlimit="10" stroke-linecap="round" stroke-linejoin="round"/>
<path d="M33.967 16.4968C33.967 16.4968 33.967 16.4967 33.967 16.4967C33.977 16.4868 33.9932 16.4868 34.0032 16.4967C34.0032 16.4967 34.0032 16.4968 34.0032 16.4968C34.0033 16.4968 34.0033 16.4969 34.0034 16.4969C34.0131 16.5068 34.0133 16.5229 34.0033 16.533C34.0033 16.533 34.0033 16.533 34.0033 16.533C34.0033 16.5331 34.0032 16.5331 34.0032 16.5331L33.967 16.4968ZM33.967 16.4968C33.967 16.4968 33.9669 16.4969 33.9669 16.4969C33.9571 16.5068 33.957 16.5229 33.9669 16.533C33.9669 16.533 33.9669 16.533 33.967 16.533C33.967 16.5331 33.967 16.5331 33.9671 16.5332C33.9771 16.543 33.9932 16.543 34.0031 16.5332L33.967 16.4968Z" fill="black" stroke="black" stroke-width="1.49999"/>
<path d="M41.4909 26.8524L39.4762 24.8378C39.0789 24.4404 39.0789 23.7961 39.4762 23.3988L44.153 18.7219C44.5504 18.3246 45.1947 18.3246 45.592 18.7219L47.6067 20.7367C48.004 21.134 48.004 21.7783 47.6067 22.1756L42.9298 26.8524C42.5325 27.2497 41.8882 27.2497 41.4909 26.8524Z" stroke="black" stroke-width="1.49999" stroke-miterlimit="10" stroke-linecap="round" stroke-linejoin="round"/>
<path d="M25.6618 11.0233L23.6472 9.00873C23.2498 8.61121 23.2498 7.96693 23.6472 7.5696L28.3239 2.89281C28.7213 2.49548 29.3656 2.49548 29.7629 2.89281L31.7776 4.90747C32.1749 5.3048 32.1749 5.94908 31.7776 6.34651L27.1008 11.0233C26.7034 11.4206 26.0592 11.4206 25.6618 11.0233Z" stroke="black" stroke-width="1.49999" stroke-miterlimit="10" stroke-linecap="round" stroke-linejoin="round"/>
<path d="M20.3963 42.4785L8.02051 30.1027" stroke="black" stroke-width="1.49999" stroke-miterlimit="10" stroke-linecap="round" stroke-linejoin="round"/>
<path d="M10.395 27.7287L12.6917 30.0245C13.4093 30.7419 14.491 30.9525 15.4249 30.5556L15.5186 30.5151C16.7963 29.9722 18.2769 30.259 19.2582 31.2413C19.9101 31.8922 20.2558 32.7634 20.2558 33.6501C20.2558 34.0981 20.167 34.5512 19.9844 34.9808L19.9439 35.0746C19.5469 36.0084 19.7575 37.0902 20.4751 37.8077L22.7708 40.1045" stroke="black" stroke-width="1.49999" stroke-miterlimit="10" stroke-linecap="round" stroke-linejoin="round"/>
<path d="M16.9962 33.4675C16.9962 33.4675 16.9962 33.4675 16.9962 33.4675C16.9864 33.4775 16.9863 33.4935 16.9962 33.5037C16.9963 33.5037 16.9963 33.5037 16.9963 33.5037C16.9963 33.5037 16.9963 33.5038 16.9963 33.5038C16.9963 33.5038 16.9964 33.5038 16.9964 33.5038C16.9964 33.5038 16.9964 33.5038 16.9964 33.5038C17.0064 33.5137 17.0225 33.5137 17.0324 33.5038C17.0325 33.5038 17.0325 33.5038 17.0325 33.5038C17.0325 33.5038 17.0325 33.5037 17.0325 33.5037C17.0325 33.5037 17.0325 33.5037 17.0325 33.5037C17.0325 33.5037 17.0326 33.5037 17.0326 33.5037C17.0426 33.4935 17.0424 33.4775 17.0327 33.4675C17.0326 33.4675 17.0326 33.4675 17.0326 33.4675C17.0326 33.4675 17.0326 33.4675 17.0326 33.4674C17.0326 33.4674 17.0325 33.4674 17.0325 33.4674C17.0225 33.4575 17.0063 33.4575 16.9963 33.4674C16.9963 33.4674 16.9963 33.4674 16.9962 33.4674C16.9962 33.4675 16.9962 33.4675 16.9962 33.4675C16.9962 33.4675 16.9962 33.4675 16.9962 33.4675Z" fill="black" stroke="black" stroke-width="1.49999"/>
<path d="M27.3528 40.9915L25.3382 38.9769C24.9408 38.5795 24.2965 38.5795 23.8992 38.9769L19.2224 43.6536C18.825 44.0511 18.825 44.6954 19.2224 45.0927L21.2369 47.1073C21.6344 47.5046 22.2786 47.5046 22.676 47.1073L27.3528 42.4305C27.7502 42.0332 27.7502 41.3889 27.3528 40.9915Z" stroke="black" stroke-width="1.49999" stroke-miterlimit="10" stroke-linecap="round" stroke-linejoin="round"/>
<path d="M11.5237 25.1614L9.50904 23.1468C9.11171 22.7494 8.46743 22.7494 8.0701 23.1468L3.39321 27.8235C2.99588 28.2209 2.99588 28.8652 3.39321 29.2625L5.40787 31.2772C5.8053 31.6745 6.44948 31.6745 6.84691 31.2772L11.5237 26.6003C11.921 26.203 11.921 25.5587 11.5237 25.1614Z" stroke="black" stroke-width="1.49999" stroke-miterlimit="10" stroke-linecap="round" stroke-linejoin="round"/>
</svg>
