<svg width="55" height="50" viewBox="0 0 55 50" fill="none" xmlns="http://www.w3.org/2000/svg">
<path d="M1.52846 42.0775L7.26265 42.7328L19.7912 44.1784V48.2357C19.7915 48.3702 19.8199 48.5031 19.8747 48.626C19.9295 48.7488 20.0093 48.8588 20.1092 48.9489C20.2859 49.1095 20.516 49.1988 20.7549 49.1995H20.8609L26.6433 48.573L43.9904 46.6456C44.117 46.6316 44.2396 46.5929 44.3512 46.5316C44.4628 46.4704 44.5612 46.3877 44.6408 46.2883C44.7205 46.189 44.7798 46.075 44.8154 45.9527C44.8509 45.8305 44.8621 45.7024 44.8481 45.5758C44.8342 45.4493 44.7955 45.3267 44.7342 45.2151C44.6729 45.1035 44.5903 45.0051 44.4909 44.9254C44.3916 44.8458 44.2775 44.7865 44.1553 44.7509C44.033 44.7153 43.905 44.7042 43.7784 44.7181L27.2986 46.501L21.9306 21.9355L25.6506 21.5308L25.8627 23.4582C25.8889 23.695 26.0019 23.9137 26.1798 24.0721C26.3578 24.2305 26.5881 24.3174 26.8264 24.3159H26.9324C27.0583 24.3027 27.1805 24.2648 27.2917 24.2043C27.403 24.1439 27.5013 24.0621 27.581 23.9637C27.6606 23.8652 27.7201 23.752 27.756 23.6306C27.7919 23.5091 27.8035 23.3818 27.7901 23.2558L27.5781 21.3284L34.1122 20.6152L40.9932 19.8731L41.2052 21.8006C41.2334 22.0562 41.3619 22.2902 41.5625 22.451C41.7631 22.6119 42.0194 22.6864 42.275 22.6583C42.5306 22.6302 42.7645 22.5017 42.9254 22.3011C43.0862 22.1005 43.1608 21.8442 43.1327 21.5886L42.9303 19.6611L46.8238 19.2178L52.2014 43.8508L46.6696 44.4483C46.543 44.4622 46.4205 44.5009 46.3089 44.5622C46.1973 44.6235 46.0988 44.7062 46.0192 44.8055C45.9395 44.9048 45.8802 45.0189 45.8447 45.1411C45.8091 45.2634 45.798 45.3914 45.8119 45.518C45.8258 45.6446 45.8645 45.7671 45.9258 45.8787C45.9871 45.9903 46.0698 46.0888 46.1691 46.1684C46.2684 46.2481 46.3825 46.3074 46.5047 46.3429C46.627 46.3785 46.7551 46.3896 46.8816 46.3757L53.5217 45.6626C53.6555 45.6475 53.7847 45.6045 53.9009 45.5365C54.0171 45.4684 54.1177 45.3768 54.1963 45.2674C54.2751 45.1589 54.3304 45.0351 54.3586 44.904C54.3868 44.7729 54.3873 44.6374 54.3602 44.5061L48.5778 17.9842C48.5268 17.7511 48.3912 17.5452 48.1971 17.4063C48.0031 17.2675 47.7644 17.2055 47.5273 17.2325L42.7087 17.7529L42.0919 11.9705C41.9449 10.5542 41.4515 9.19578 40.6551 8.01529C39.8588 6.8348 38.7841 5.86853 37.5258 5.20179C36.2676 4.53505 34.8645 4.18835 33.4406 4.1923C32.0166 4.19625 30.6155 4.55072 29.361 5.22443C28.6855 4.02782 27.7323 3.01103 26.5818 2.25967C25.4313 1.50831 24.117 1.04437 22.7498 0.90692C22.4085 0.852309 22.0641 0.820116 21.7186 0.810547C19.5891 0.816291 17.5362 1.60521 15.9509 3.027C14.3656 4.4488 13.3587 6.4041 13.1221 8.52039L12.4668 14.3028L7.64815 13.7631C7.4124 13.7357 7.17486 13.7963 6.98102 13.9333C6.78718 14.0702 6.65068 14.2738 6.59768 14.5052L0.690012 40.9114C0.661443 41.0442 0.661271 41.1815 0.689506 41.3144C0.717741 41.4473 0.773745 41.5727 0.853846 41.6824C0.932448 41.7917 1.03309 41.8834 1.14928 41.9514C1.26548 42.0195 1.39465 42.0624 1.52846 42.0775ZM25.3712 46.7709L21.7186 47.166V30.0983L25.3712 46.7709ZM27.4046 19.4105L27.2312 17.8589L27.607 17.9071L27.4046 19.4105ZM33.187 18.7841L29.361 19.2178L29.4863 18.1481L33.2063 18.5721L33.187 18.7841ZM28.4647 8.46257C28.542 9.05113 28.542 9.64727 28.4647 10.2358L28.3298 11.3923C28.2991 11.6479 28.3713 11.9052 28.5303 12.1076C28.6893 12.3101 28.9223 12.441 29.1779 12.4717C29.4335 12.5024 29.6908 12.4302 29.8932 12.2712C30.0956 12.1121 30.2266 11.8792 30.2573 11.6236L30.3922 10.4575C30.524 9.32833 30.4257 8.18416 30.1031 7.09407C30.9174 6.62559 31.8196 6.3303 32.7533 6.22671C33.6342 6.13176 34.5251 6.21124 35.3753 6.46061C36.2254 6.70999 37.0181 7.12438 37.7081 7.68013C38.398 8.23587 38.9718 8.92208 39.3966 9.69957C39.8213 10.4771 40.0888 11.3306 40.1837 12.2115L40.8101 17.9939L35.2108 18.5625L35.3554 17.9264C35.384 17.7936 35.3841 17.6563 35.3559 17.5234C35.3277 17.3905 35.2717 17.2651 35.1916 17.1554C35.113 17.0461 35.0123 16.9544 34.8961 16.8864C34.7799 16.8183 34.6508 16.7754 34.517 16.7603L29.6983 16.211L29.8911 14.5148C29.9062 14.3882 29.8963 14.2599 29.8619 14.1372C29.8275 14.0145 29.7693 13.8997 29.6906 13.7995C29.6118 13.6992 29.5141 13.6155 29.403 13.553C29.2919 13.4906 29.1695 13.4506 29.043 13.4354C28.9164 13.4202 28.7881 13.4301 28.6654 13.4645C28.5426 13.4989 28.4279 13.5572 28.3276 13.6359C28.2274 13.7147 28.1437 13.8124 28.0812 13.9235C28.0187 14.0346 27.9788 14.1569 27.9636 14.2835L27.7612 15.9893L26.9517 15.9026L26.7107 13.6571C26.6232 12.7167 26.7341 11.7684 27.0362 10.8736C27.3384 9.97879 27.825 9.15739 28.4647 8.46257ZM15.0881 8.7035C15.2781 7.07257 16.0563 5.56689 17.2769 4.46868C18.4975 3.37048 20.0768 2.75514 21.7186 2.73801C21.9818 2.72406 22.2456 2.72406 22.5089 2.73801C23.613 2.86135 24.669 3.25821 25.5811 3.89263C26.4931 4.52705 27.2325 5.37898 27.7323 6.37127C26.687 7.29123 25.8786 8.44933 25.3754 9.74767C24.8721 11.046 24.6889 12.4464 24.8411 13.8305L25.0435 15.6327L14.4424 14.4184L15.0881 8.7035ZM6.54949 23.622V30.7729C6.54949 31.0285 6.65103 31.2737 6.83176 31.4544C7.0125 31.6351 7.25763 31.7367 7.51322 31.7367C7.76882 31.7367 8.01395 31.6351 8.19468 31.4544C8.37542 31.2737 8.47696 31.0285 8.47696 30.7729L8.58297 15.7098L9.06483 15.7676L12.303 16.1339L12.0909 18.0613C12.0638 18.3142 12.1378 18.5675 12.2966 18.7661C12.4555 18.9646 12.6864 19.0924 12.939 19.1214H13.045C13.2833 19.1229 13.5136 19.036 13.6916 18.8776C13.8696 18.7192 13.9826 18.5005 14.0088 18.2637L14.2304 16.3362L25.2941 17.5987L25.5061 19.584L20.6874 20.1044C20.5536 20.1195 20.4244 20.1625 20.3082 20.2305C20.1921 20.2986 20.0914 20.3902 20.0128 20.4996C19.8786 20.6937 19.8203 20.9303 19.849 21.1645V42.2028L8.38058 40.8825V33.6448C8.38058 33.3892 8.27905 33.1441 8.09831 32.9634C7.91758 32.7827 7.67245 32.6811 7.41685 32.6811C7.16125 32.6811 6.91613 32.7827 6.73539 32.9634C6.55466 33.1441 6.45312 33.3892 6.45312 33.6448V40.6801L2.83913 40.2657L6.54949 23.622Z" fill="black"/>
</svg>
