<svg width="48" height="48" viewBox="0 0 48 48" fill="none" xmlns="http://www.w3.org/2000/svg">
<g clip-path="url(#clip0_301_1441)">
<path d="M44.236 23.8671L41.8511 21.2962C41.4593 20.8738 40.9263 20.6343 40.3502 20.622C40.0316 20.6144 39.7246 20.6775 39.4444 20.8031L37.5822 18.6434L35.5904 16.3391C34.704 15.3139 33.5651 14.5198 32.2967 14.0428C32.1097 13.9724 31.9124 13.9399 31.7155 13.9404L27.142 10.1262L24.9027 6.36775C24.704 6.03406 24.2725 5.92474 23.9387 6.1236C23.6051 6.32237 23.4958 6.75405 23.6945 7.08764L25.9953 10.9493C26.036 11.0177 26.088 11.0785 26.1491 11.1294L30.3683 14.6481C30.2733 14.7857 30.1989 14.9382 30.1494 15.1004L29.4476 17.4037C29.4206 17.492 29.3728 17.574 29.3092 17.641L26.6275 20.4659C26.5221 20.577 26.3799 20.6427 26.227 20.6512L18.5141 21.0793C18.2841 21.0921 18.0601 21.1302 17.8446 21.1899L17.3238 15.6424C17.2754 15.1266 17.0693 14.6481 16.7276 14.2583L4.43504 0.239701C4.17889 -0.0524544 3.73456 -0.0816137 3.44269 0.174632C3.15072 0.430597 3.12156 0.874925 3.37762 1.16689L15.6699 15.1854C15.8151 15.3511 15.9028 15.5545 15.9234 15.7737L16.5039 21.9567C16.16 22.289 15.8887 22.7011 15.722 23.1731L11.0117 36.5192C11.0014 36.5485 10.9771 36.5694 10.9478 36.5772L10.9171 36.5829L8.20325 36.9423C5.96005 37.2394 4.26843 39.1699 4.26843 41.4327V43.0042C3.80657 43.2548 3.49229 43.744 3.49229 44.3053V46.5206C3.49229 47.3363 4.15592 48 4.97163 48H17.9893C18.5586 48 19.1057 47.8271 19.5715 47.5L32.4168 38.483C32.5924 38.3598 32.7022 38.163 32.7148 37.9488L32.7752 36.9229L33.7045 36.8648C33.8617 36.855 34.0109 36.7927 34.1284 36.6879L36.5516 34.5284C36.6919 34.4034 36.7763 34.2273 36.786 34.0396L36.8485 32.8228H38.2159C38.4101 32.8228 38.5956 32.7425 38.7285 32.6009L44.2272 26.7452C44.9829 25.9405 44.9868 24.6762 44.236 23.8671ZM38.3547 21.6929L34.8806 25.1296C33.7536 23.1589 34.0046 20.7189 35.5238 19.017L35.7892 18.7196L36.5175 19.5622L38.3547 21.6929ZM17.0482 23.6411C17.2827 22.9769 17.8886 22.5224 18.5918 22.4834L21.8407 22.303L17.4963 33.4614C16.9971 34.7433 15.8917 35.6587 14.5391 35.9099L12.5903 36.2719L17.0482 23.6411ZM22.8495 37.0309L17.9243 35.4687C18.2913 35.0287 18.5911 34.5257 18.8068 33.9717L19.4272 32.3785L25.3231 34.584L22.8495 37.0309ZM26.4245 33.4945L19.9374 31.0679L21.1141 28.0457L28.9978 30.949L26.4245 33.4945ZM43.202 25.7825L37.9115 31.4164H36.1805C35.8062 31.4164 35.4974 31.7096 35.4782 32.0834L35.3963 33.6738L33.3739 35.4763L32.0657 35.558C31.7109 35.5802 31.4285 35.8637 31.4076 36.2186L31.3305 37.5271L18.7632 46.3489C18.5353 46.509 18.2676 46.5936 17.9892 46.5936H4.97154C4.93131 46.5936 4.89859 46.5607 4.89859 46.5206V44.3053C4.89859 44.265 4.93131 44.2324 4.97154 44.2324H10.5156C10.9039 44.2324 11.2188 43.9177 11.2188 43.5292C11.2188 43.1408 10.9039 42.826 10.5156 42.826H5.67473V41.4327C5.67473 39.8725 6.84111 38.5415 8.38786 38.3366L14.796 37.2929C15.4826 37.1653 16.1223 36.9114 16.6895 36.5526L21.72 38.1482L16.9911 42.826H13.5123C13.124 42.826 12.8091 43.1408 12.8091 43.5292C12.8091 43.9177 13.124 44.2324 13.5123 44.2324H17.2801C17.4653 44.2324 17.643 44.1594 17.7746 44.0291L31.4957 30.4561C31.7719 30.183 31.7743 29.7377 31.5012 29.4617C31.2281 29.1855 30.7828 29.1831 30.5068 29.4562L30.1018 29.8569L21.6243 26.7349L23.3832 22.2175L26.3045 22.0554C26.817 22.0271 27.2939 21.8064 27.6473 21.4341L30.3287 18.6095C30.5418 18.3851 30.7022 18.1099 30.7925 17.8137L31.4944 15.5104C31.5202 15.4259 31.5812 15.385 31.6153 15.3682C31.6494 15.3515 31.7188 15.328 31.8015 15.359C32.8508 15.7537 33.793 16.4107 34.5263 17.2588L34.8617 17.6468L34.4745 18.0806C32.5116 20.2796 32.2181 23.4514 33.744 25.9733L33.8502 26.1488L32.6372 27.3488C32.3611 27.6219 32.3586 28.0672 32.6317 28.3432C32.9048 28.6193 33.35 28.6219 33.6262 28.3486L39.8104 22.2312C39.9469 22.0962 40.1262 22.0216 40.3198 22.0282C40.5117 22.0323 40.6892 22.1121 40.8198 22.2528L41.7009 23.2026L36.5566 28.2658C36.2798 28.5383 36.2763 28.9835 36.5487 29.2603C36.6864 29.4002 36.8681 29.4702 37.05 29.4702C37.228 29.4702 37.4063 29.403 37.5433 29.2682L42.6579 24.2342L43.2048 24.8236C43.4551 25.0932 43.4538 25.5144 43.202 25.7825Z" fill="black"/>
<path d="M18.2777 25.7953C18.3429 25.8141 18.4086 25.8231 18.4732 25.8231C18.7784 25.8231 19.0595 25.6228 19.1485 25.315L19.2377 25.0061C19.3456 24.633 19.1305 24.2431 18.7573 24.1354C18.3839 24.0272 17.9943 24.2427 17.8866 24.6157L17.7973 24.9245C17.6896 25.2976 17.9047 25.6876 18.2777 25.7953Z" fill="black"/>
<path d="M16.9535 29.5969C17.0187 29.6157 17.0844 29.6247 17.1491 29.6247C17.4542 29.6247 17.7352 29.4245 17.8243 29.1167L17.9136 28.8078C18.0214 28.4347 17.8064 28.0448 17.4332 27.937C17.0601 27.8292 16.6703 28.0442 16.5624 28.4172L16.4731 28.7261C16.3653 29.0991 16.5803 29.489 16.9535 29.5969Z" fill="black"/>
<path d="M15.5214 33.5463C15.5866 33.5651 15.6523 33.5741 15.7169 33.5741C16.0221 33.5741 16.3032 33.3738 16.3922 33.0659L16.4814 32.7571C16.5893 32.384 16.3742 31.9941 16.001 31.8863C15.6277 31.7782 15.238 31.9937 15.1303 32.3667L15.041 32.6755C14.9332 33.0486 15.1483 33.4385 15.5214 33.5463Z" fill="black"/>
<path d="M22.1603 4.51286C22.2918 4.73366 22.5254 4.85621 22.765 4.85621C22.8875 4.85621 23.0114 4.82424 23.1243 4.75701C23.458 4.55824 23.5673 4.12657 23.3685 3.79297L21.3133 0.343452C21.1146 0.0097604 20.6829 -0.0996574 20.3492 0.0993011C20.0155 0.298072 19.9063 0.729743 20.1051 1.06334L22.1603 4.51286Z" fill="black"/>
</g>
<defs>
<clipPath id="clip0_301_1441">
<rect width="48" height="48" fill="white"/>
</clipPath>
</defs>
</svg>
